<?xml version="1.0" encoding="utf-8"?>
<!-- Generator: Adobe Illustrator 24.1.1, SVG Export Plug-In . SVG Version: 6.00 Build 0)  -->
<svg version="1.1" id="Layer_1" xmlns="http://www.w3.org/2000/svg" xmlns:xlink="http://www.w3.org/1999/xlink" x="0px" y="0px"
	 viewBox="0 0 512 512" style="enable-background:new 0 0 512 512;" xml:space="preserve">
<g>
	<path d="M460.8,512H51.2C22.2,512,0,489.8,0,460.8V85.3c0-29,18.8-51.2,42.7-51.2h25.6v34.1H42.7c-3.4,0-8.5,6.8-8.5,17.1v375.5
		c0,10.2,6.8,17.1,17.1,17.1h409.6c10.2,0,17.1-6.8,17.1-17.1V85.3c0-10.2-5.1-17.1-8.5-17.1h-25.6V34.1h25.6
		c23.9,0,42.7,22.2,42.7,51.2v375.5C512,489.8,489.8,512,460.8,512z"/>
	<path d="M119.5,102.4c-10.2,0-17.1-6.8-17.1-17.1V17.1c0-10.2,6.8-17.1,17.1-17.1s17.1,6.8,17.1,17.1v68.3
		C136.5,95.6,129.7,102.4,119.5,102.4z"/>
	<path d="M392.5,102.4c-10.2,0-17.1-6.8-17.1-17.1V17.1c0-10.2,6.8-17.1,17.1-17.1s17.1,6.8,17.1,17.1v68.3
		C409.6,95.6,402.8,102.4,392.5,102.4z"/>
	<rect x="170.7" y="34.1" width="170.7" height="34.1"/>
	<rect x="34.1" y="136.5" width="443.7" height="34.1"/>
	<rect x="409.6" y="204.8" width="34.1" height="34.1"/>
	<rect x="341.3" y="204.8" width="34.1" height="34.1"/>
	<rect x="273.1" y="204.8" width="34.1" height="34.1"/>
	<rect x="204.8" y="204.8" width="34.1" height="34.1"/>
	<rect x="136.5" y="204.8" width="34.1" height="34.1"/>
	<rect x="409.6" y="273.1" width="34.1" height="34.1"/>
	<rect x="341.3" y="273.1" width="34.1" height="34.1"/>
	<rect x="273.1" y="273.1" width="34.1" height="34.1"/>
	<rect x="204.8" y="273.1" width="34.1" height="34.1"/>
	<rect x="136.5" y="273.1" width="34.1" height="34.1"/>
	<rect x="68.3" y="273.1" width="34.1" height="34.1"/>
	<rect x="409.6" y="341.3" width="34.1" height="34.1"/>
	<rect x="341.3" y="341.3" width="34.1" height="34.1"/>
	<rect x="273.1" y="341.3" width="34.1" height="34.1"/>
	<rect x="204.8" y="341.3" width="34.1" height="34.1"/>
	<rect x="136.5" y="341.3" width="34.1" height="34.1"/>
	<rect x="68.3" y="341.3" width="34.1" height="34.1"/>
	<rect x="341.3" y="409.6" width="34.1" height="34.1"/>
	<rect x="273.1" y="409.6" width="34.1" height="34.1"/>
	<rect x="204.8" y="409.6" width="34.1" height="34.1"/>
	<rect x="136.5" y="409.6" width="34.1" height="34.1"/>
	<rect x="68.3" y="409.6" width="34.1" height="34.1"/>
</g>
</svg>
